# Blender 5.0.1
# www.blender.org
mtllib rock.mtl
o Cube
v 1.909732 1.696762 -1.677514
v 0.784429 -0.991158 -1.059339
v 1.013486 -0.991158 1.081861
v -0.794653 1.879376 -1.793184
v -0.933254 -0.991158 -0.914854
v -1.171366 0.971148 0.966625
v -1.017350 -0.991158 0.914315
v 8.213677 1.018472 0.310509
v 8.307624 -0.991158 -0.624056
v 8.430275 0.993728 0.928482
v 8.914251 -0.991158 1.092090
v 3.153448 -0.991158 1.022428
v 5.139934 -0.991158 1.079368
v 6.774088 -0.991158 0.985449
v 7.159301 1.301948 1.182637
v 4.793296 0.899336 1.713447
v 3.392184 1.226983 -1.839553
v 5.075832 1.336760 -1.681437
v 7.395957 1.116480 -0.194199
v 6.902082 -0.991158 -1.206217
v 4.824962 -0.991158 -1.023201
v 2.898096 -0.991158 -1.102180
v 1.845354 -0.991158 -3.233639
v -0.881270 -0.991158 -2.586376
v 1.664690 1.209187 -2.612512
v -1.245499 1.523759 -2.540703
v 3.144764 -0.991158 -2.592693
v 3.030360 0.907695 -2.338210
v 4.362581 1.133616 -2.162434
v 4.164429 -0.991158 -2.097856
v 1.059602 -0.991158 -3.895146
v -0.858302 -0.991158 -3.956137
v 1.056985 1.235250 -3.878561
v -1.039294 0.847754 -3.996153
v 0.911130 2.456892 1.107924
v -0.864141 2.214220 1.166777
v 1.125237 2.210111 -0.860241
v -0.972595 2.102874 -1.021242
v 3.211900 2.342369 1.083795
v 6.982263 2.412264 0.679299
v 5.119650 2.447909 1.112873
v 3.048141 2.267611 -0.787981
v 4.836858 2.409075 -1.163262
v 6.755658 2.191970 -0.509921
v 1.112526 3.604597 0.870415
v -1.070693 3.862256 1.165975
v 0.882012 3.838361 -1.025365
v -1.099734 3.696508 -1.155399
v 2.997389 3.846236 0.211230
v 2.948586 3.644053 -0.584780
v 0.639783 5.231725 0.408131
v -0.269723 5.456573 0.380005
v 0.501298 5.264340 -0.533873
v -0.460113 5.152843 -0.559410
v -1.173325 -0.991158 2.647533
v -0.902922 1.122361 2.509149
v 0.898246 1.167048 2.578704
v 1.116026 -0.991158 2.452115
v 8.318713 1.018123 1.535766
v 8.406707 -0.991158 2.266157
v 6.997474 -0.991158 2.546843
v 2.936236 1.156315 2.550962
v 3.091552 -0.991158 2.748682
v 4.871683 -0.991158 2.601097
v 7.194143 1.096526 2.062421
v 5.031701 1.020467 2.803613
v -0.871903 2.379908 2.717821
v 1.198515 2.175472 2.599494
v 2.886975 2.383831 2.741549
v 4.784311 2.302709 2.473918
v 1.187245 3.769866 2.765242
v -1.067416 3.882620 2.589751
vn 0.9667 0.2163 0.1370
vn 0.0495 0.9987 -0.0153
vn -0.9960 -0.0770 -0.0458
vn -0.0000 -1.0000 -0.0000
vn 0.9247 0.1952 -0.3269
vn 0.3607 0.3337 -0.8709
vn 0.1796 0.9785 -0.1009
vn 0.0550 0.4443 -0.8942
vn 0.0795 0.8767 -0.4744
vn -0.9805 -0.0817 0.1786
vn 0.2813 0.8187 -0.5006
vn 0.5726 -0.0782 -0.8161
vn -0.0847 -0.2627 -0.9612
vn -0.9692 0.2445 -0.0310
vn -0.1128 0.9666 0.2302
vn -0.9950 -0.0983 -0.0167
vn 0.4377 0.1453 -0.8873
vn 0.4320 0.1453 -0.8901
vn -0.0814 0.8651 -0.4949
vn -0.9988 0.0387 -0.0311
vn 0.0835 0.8794 -0.4687
vn 0.0318 -0.0186 -0.9993
vn -0.1403 0.8902 -0.4334
vn 0.8863 0.1918 -0.4215
vn -0.9958 -0.0750 0.0532
vn 0.0202 0.1992 0.9797
vn -0.0855 0.9958 -0.0323
vn 0.1232 0.9919 -0.0322
vn 0.2365 0.9716 0.0044
vn 0.1530 0.3291 0.9318
vn 0.5433 0.0780 -0.8359
vn -0.9723 -0.1478 -0.1813
vn 0.1574 0.7272 -0.6681
vn -0.9128 0.4081 -0.0177
vn 0.0689 0.9911 0.1138
vn -0.0564 0.9941 0.0922
vn 0.2201 0.1580 -0.9626
vn 0.0807 -0.0886 -0.9928
vn 0.9919 0.0891 -0.0903
vn -0.1164 0.9919 0.0515
vn 0.1672 0.3671 0.9150
vn 0.0378 0.3346 -0.9416
vn 0.9630 0.2555 -0.0856
vn 0.0849 -0.0498 0.9951
vn 0.4195 0.3263 0.8471
vn -0.0340 -0.1628 0.9861
vn 0.0133 -0.0572 0.9983
vn -0.1140 0.0829 0.9900
vn 0.3127 0.1867 0.9313
vn 0.0135 -0.0246 0.9996
vn -0.1283 -0.1572 0.9792
vn 0.0660 0.0933 0.9935
vn 0.8891 0.2485 0.3844
vn 0.9658 0.1284 -0.2255
vn 0.9825 0.0261 -0.1844
vn 0.1046 0.9904 -0.0905
vn -0.9922 -0.1244 0.0041
vn 0.8629 0.4414 -0.2462
vn -0.1371 0.9682 0.2091
vn -0.9911 0.0072 -0.1329
vn 0.9271 0.1999 -0.3169
vn 0.5183 0.3804 -0.7659
vn 0.2278 0.9729 -0.0409
vn -0.2037 0.6618 -0.7215
vn -0.0272 0.9585 -0.2838
vn -0.9887 0.1207 -0.0890
vn 0.1753 0.7664 -0.6180
vn 0.8284 -0.2333 -0.5092
vn 0.5386 0.2588 -0.8018
vn -0.9851 -0.0042 0.1719
vn -0.0677 0.9931 -0.0955
vn -0.9871 -0.1416 -0.0741
vn 0.2484 0.2820 -0.9267
vn 0.1378 -0.0429 -0.9895
vn -0.0277 0.9349 -0.3537
vn -0.8208 -0.1290 0.5564
vn 0.0795 0.8752 -0.4772
vn 0.0546 0.0075 -0.9985
vn 0.1067 0.9938 -0.0307
vn 0.6440 0.0065 -0.7650
vn -0.9920 -0.1243 0.0213
vn 0.2241 0.5128 0.8287
vn -0.0551 0.9984 -0.0102
vn -0.0226 0.9838 -0.1779
vn 0.1690 0.9613 0.2178
vn 0.2124 0.4314 0.8768
vn 0.3317 0.4694 -0.8183
vn -0.9715 0.2343 0.0362
vn -0.0051 0.8446 -0.5354
vn -0.8870 0.4608 0.0308
vn -0.2023 0.9521 -0.2294
vn 0.0403 0.9990 -0.0171
vn 0.0402 -0.0949 -0.9947
vn 0.0708 -0.0781 -0.9944
vn 0.9931 0.0840 -0.0822
vn 0.2355 0.9098 -0.3419
vn 0.0406 0.2840 0.9580
vn -0.0203 0.3863 -0.9222
vn 0.9461 0.2970 -0.1288
vn -0.0402 0.0704 0.9967
vn 0.1912 0.2047 0.9600
vn 0.0534 -0.0365 0.9979
vn -0.1480 0.0801 0.9857
vn 0.0822 -0.1063 0.9909
vn 0.0254 -0.1021 0.9944
vn -0.0637 -0.1556 0.9858
vn 0.1458 0.2727 0.9510
vn -0.0823 -0.1036 0.9912
vn 0.9787 0.1067 0.1755
vn 0.9672 -0.1162 0.2259
vn 0.9839 -0.1775 -0.0233
vn 0.0511 0.9986 -0.0144
vn -0.9917 -0.1283 0.0087
vt 0.625000 0.500000
vt 0.625000 0.750000
vt 0.625000 0.000000
vt 0.375000 0.250000
vt 0.375000 0.000000
vt 0.375000 0.500000
vt 0.125000 0.750000
vt 0.125000 0.500000
vt 0.375000 0.750000
vt 0.875000 0.500000
vt 0.625000 0.250000
vt 0.625000 1.000000
vt 0.375000 1.000000
vt 0.875000 0.750000
s 0
usemtl Material
f 19/1/1 40/2/1 15/2/1
f 35/2/2 69/2/2 39/2/2
f 6/3/3 5/4/3 7/5/3
f 2/6/4 7/7/4 5/8/4
f 3/9/4 63/9/4 58/9/4
f 22/6/4 30/6/4 21/6/4
f 8/1/5 11/9/5 9/6/5
f 19/1/6 9/6/6 20/6/6
f 14/9/4 9/6/4 11/9/4
f 15/2/7 8/1/7 19/1/7
f 17/1/8 43/1/8 18/1/8
f 4/10/9 37/1/9 1/1/9
f 7/5/10 56/3/10 6/3/10
f 2/6/4 12/9/4 3/9/4
f 22/6/4 13/9/4 12/9/4
f 21/6/4 14/9/4 13/9/4
f 1/1/11 28/1/11 25/1/11
f 18/1/12 30/6/12 29/1/12
f 18/1/13 20/6/13 21/6/13
f 6/3/14 67/3/14 36/3/14
f 16/2/15 65/2/15 15/2/15
f 14/9/4 60/9/4 61/9/4
f 24/4/16 34/11/16 32/4/16
f 23/6/17 28/1/17 27/6/17
f 28/1/18 30/6/18 27/6/18
f 17/1/19 29/1/19 28/1/19
f 4/11/20 24/4/20 5/4/20
f 2/6/4 24/8/4 23/6/4
f 4/10/21 25/1/21 26/10/21
f 2/6/4 27/6/4 22/6/4
f 34/11/22 31/6/22 32/4/22
f 24/8/4 31/6/4 23/6/4
f 26/10/23 33/1/23 34/10/23
f 23/6/24 33/1/24 25/1/24
f 36/3/25 48/11/25 38/11/25
f 39/2/26 45/2/26 35/2/26
f 39/2/27 43/1/27 42/1/27
f 41/2/28 44/1/28 43/1/28
f 15/2/29 59/2/29 10/2/29
f 15/2/30 41/2/30 16/2/30
f 18/1/31 44/1/31 19/1/31
f 7/7/4 58/9/4 55/7/4
f 6/3/32 38/11/32 4/11/32
f 1/1/33 42/1/33 17/1/33
f 46/3/34 54/11/34 48/11/34
f 45/2/35 50/1/35 47/1/35
f 39/2/36 70/2/36 41/2/36
f 42/1/37 47/1/37 50/1/37
f 38/10/38 47/1/38 37/1/38
f 42/1/39 49/2/39 39/2/39
f 54/10/40 51/2/40 53/1/40
f 45/2/41 52/12/41 46/12/41
f 48/10/42 53/1/42 47/1/42
f 47/1/43 51/2/43 45/2/43
f 57/2/44 55/13/44 58/9/44
f 65/2/45 60/9/45 59/2/45
f 57/2/46 67/12/46 56/12/46
f 58/9/47 62/2/47 57/2/47
f 63/9/48 66/2/48 62/2/48
f 66/2/49 61/9/49 65/2/49
f 62/2/50 68/2/50 57/2/50
f 66/2/51 69/2/51 62/2/51
f 68/2/52 72/12/52 67/12/52
f 10/2/53 60/9/53 11/9/53
f 16/2/54 70/2/54 66/2/54
f 35/2/55 71/2/55 68/2/55
f 12/9/4 64/9/4 63/9/4
f 46/12/56 71/2/56 45/2/56
f 36/3/57 72/3/57 46/3/57
f 13/9/4 61/9/4 64/9/4
f 19/1/58 44/1/58 40/2/58
f 35/2/59 68/2/59 69/2/59
f 6/3/60 4/11/60 5/4/60
f 2/6/4 3/9/4 7/7/4
f 3/9/4 12/9/4 63/9/4
f 22/6/4 27/6/4 30/6/4
f 8/1/61 10/2/61 11/9/61
f 19/1/62 8/1/62 9/6/62
f 14/9/4 20/6/4 9/6/4
f 15/2/63 10/2/63 8/1/63
f 17/1/64 42/1/64 43/1/64
f 4/10/65 38/10/65 37/1/65
f 7/5/66 55/5/66 56/3/66
f 2/6/4 22/6/4 12/9/4
f 22/6/4 21/6/4 13/9/4
f 21/6/4 20/6/4 14/9/4
f 1/1/67 17/1/67 28/1/67
f 18/1/68 21/6/68 30/6/68
f 18/1/69 19/1/69 20/6/69
f 6/3/70 56/3/70 67/3/70
f 16/2/71 66/2/71 65/2/71
f 14/9/4 11/9/4 60/9/4
f 24/4/72 26/11/72 34/11/72
f 23/6/73 25/1/73 28/1/73
f 28/1/74 29/1/74 30/6/74
f 17/1/75 18/1/75 29/1/75
f 4/11/76 26/11/76 24/4/76
f 2/6/4 5/8/4 24/8/4
f 4/10/77 1/1/77 25/1/77
f 2/6/4 23/6/4 27/6/4
f 34/11/78 33/1/78 31/6/78
f 24/8/4 32/8/4 31/6/4
f 26/10/79 25/1/79 33/1/79
f 23/6/80 31/6/80 33/1/80
f 36/3/81 46/3/81 48/11/81
f 39/2/82 49/2/82 45/2/82
f 39/2/83 41/2/83 43/1/83
f 41/2/84 40/2/84 44/1/84
f 15/2/85 65/2/85 59/2/85
f 15/2/86 40/2/86 41/2/86
f 18/1/87 43/1/87 44/1/87
f 7/7/4 3/9/4 58/9/4
f 6/3/88 36/3/88 38/11/88
f 1/1/89 37/1/89 42/1/89
f 46/3/90 52/3/90 54/11/90
f 45/2/91 49/2/91 50/1/91
f 39/2/92 69/2/92 70/2/92
f 42/1/93 37/1/93 47/1/93
f 38/10/94 48/10/94 47/1/94
f 42/1/95 50/1/95 49/2/95
f 54/10/96 52/14/96 51/2/96
f 45/2/97 51/2/97 52/12/97
f 48/10/98 54/10/98 53/1/98
f 47/1/99 53/1/99 51/2/99
f 57/2/100 56/12/100 55/13/100
f 65/2/101 61/9/101 60/9/101
f 57/2/102 68/2/102 67/12/102
f 58/9/103 63/9/103 62/2/103
f 63/9/104 64/9/104 66/2/104
f 66/2/105 64/9/105 61/9/105
f 62/2/106 69/2/106 68/2/106
f 66/2/107 70/2/107 69/2/107
f 68/2/108 71/2/108 72/12/108
f 10/2/109 59/2/109 60/9/109
f 16/2/110 41/2/110 70/2/110
f 35/2/111 45/2/111 71/2/111
f 12/9/4 13/9/4 64/9/4
f 46/12/112 72/12/112 71/2/112
f 36/3/113 67/3/113 72/3/113
f 13/9/4 14/9/4 61/9/4
